{"title":"The Conjuring 2013 WEBRip XViD AC3 ReLeNTLesS","uid":8777272,"size":908956716,"categoryP":"video","categoryS":"movies","magnet":"?xt=urn:btih:460fe7777c8766aab458f8567c5193623debc381&amp;dn=The+Conjuring+2013+WEBRip+XViD+AC3+ReLeNTLesS&amp;tr=udp%3A%2F%2Ftracker.openbittorrent.com%3A80&amp;tr=udp%3A%2F%2Fopen.demonii.com%3A1337&amp;tr=udp%3A%2F%2Ftracker.coppersurfer.tk%3A6969&amp;tr=udp%3A%2F%2Fexodus.desync.com%3A6969","seeders":26,"leechers":1,"uploader":"horrorhound","files":-1,"time":1375588950,"description":"The Conjuring 2013 WEBRip XViD AC3 ReLeNTLesS\n\n\nGeneral\nComplete name: The.Conjuring.2013.WEBRip.XViD.AC3.ReLeNTLesS.avi\nFormat: AVI\nFormat/Info: Audio Video Interleave\nFile size: 844 MiB\nDuration: 1h 47mn\nOverall bit rate: 1 099 Kbps\n\n\nVideo\nID: 0\nFormat: MPEG-4 Visual\nFormat profile: Advanced Simple@L5\nFormat settings, BVOP: 2\nFormat settings, QPel: No\nFormat settings, GMC: No warppoints\nFormat settings, Matrix: Default (H.263)\nCodec ID: XVID\nCodec ID/Hint: XviD\nDuration: 1h 47mn\nBit rate: 963 Kbps\nWidth: 688 pixels\nHeight: 272 pixels\nDisplay aspect ratio: 2.529\nFrame rate: 25.000 fps\nColor space: YUV\nChroma subsampling: 4:2:0\nBit depth: 8 bits\nScan type: Progressive\nCompression mode: Lossy\nBits/(Pixel*Frame): 0.206\nStream size: 740 MiB (88%)\nWriting library: XviD 1.2.1 (UTC 2008-12-04)\n\n\nAudio\nID: 1\nFormat: AC-3\nFormat/Info: Audio Coding 3\nMode extension: CM (complete main)\nFormat settings, Endianness: Big\nCodec ID: 2000\nDuration: 1h 47mn\nBit rate mode: Constant\nBit rate: 128 Kbps\nChannel(s): 2 channels\nChannel positions: Front: L R\nSampling rate: 44.1 KHz\nBit depth: 16 bits\nCompression mode: Lossy\nStream size: 98.3 MiB (12%)\nAlignment: Aligned on interleaves\nInterleave, duration: 70 ms (1.74 video frames)\nInterleave, preload duration: 208 ms\nTitle: The.Conjuring.2013.ReLeNTLesS.audio\nSource: SmY cheers\nSample Included: Yes\n\n\nPL0T\nParanormal investigators Ed and Lorraine Warren work to help a family terrorized by a dark presence in their farmhouse\n\n\nCAST\nDirector: James Wan\nWriters: Chad Hayes, Carey Hayes\nStars: Vera Farmiga, Patrick Wilson, Lili Taylor\n","torrent":{"xt":"urn:btih:460fe7777c8766aab458f8567c5193623debc381","amp;dn":"The+Conjuring+2013+WEBRip+XViD+AC3+ReLeNTLesS","amp;tr":["udp%3A%2F%2Ftracker.openbittorrent.com%3A80","udp%3A%2F%2Fopen.demonii.com%3A1337","udp%3A%2F%2Ftracker.coppersurfer.tk%3A6969","udp%3A%2F%2Fexodus.desync.com%3A6969"],"infoHash":"460fe7777c8766aab458f8567c5193623debc381","infoHashBuffer":{"type":"Buffer","data":[70,15,231,119,124,135,102,170,180,88,248,86,124,81,147,98,61,235,195,129]},"announce":[],"urlList":[]}}